<svg width="200" viewBox="0 0 660 417" fill="none" xmlns="http://www.w3.org/2000/svg">
<g clip-path="url(#clip0)">
<path d="M620.261 417H39.739C29.244 417.042 19.1621 412.912 11.71 405.519C4.25803 398.126 0.045969 388.076 0 377.577L0 39.4243C0.0227586 34.2243 1.06914 29.0796 3.07941 24.2841C5.08968 19.4887 8.02446 15.1362 11.7162 11.4754C15.4079 7.81451 19.7843 4.91693 24.5954 2.94806C29.4066 0.979191 34.5582 -0.0224042 39.7563 0.000463124H620.226C625.426 -0.024693 630.579 0.975212 635.393 2.94305C640.206 4.9109 644.584 7.80812 648.278 11.4692C651.971 15.1303 654.908 19.4835 656.919 24.2801C658.93 29.0767 659.977 34.2228 660 39.4243V377.577C659.954 388.076 655.742 398.126 648.29 405.519C640.838 412.912 630.756 417.042 620.261 417" fill="#3F22AB"/>
<path d="M620.26 408.313H39.7383C31.5465 408.354 23.6735 405.14 17.8501 399.376C12.0266 393.613 8.72954 385.771 8.68359 377.577V39.4243C8.73412 31.2278 12.0351 23.3866 17.8613 17.6234C23.6874 11.8601 31.5623 8.6463 39.7557 8.6879H620.226C628.419 8.6463 636.294 11.8601 642.12 17.6234C647.946 23.3866 651.247 31.2278 651.298 39.4243V377.577C651.298 394.482 637.455 408.313 620.243 408.313H620.26Z" stroke="#142688" stroke-opacity="0.2"/>
<path d="M309.617 264.237C308.75 263.685 308.564 254.109 308.742 219.31L308.969 175.085H316.843H324.717L324.998 178.154C325.153 179.842 325.582 181.535 325.952 181.916C326.322 182.297 328.677 181.225 331.185 179.533C338.678 174.479 344.32 173.579 353.493 175.974C373.393 181.169 383.737 204.594 374.947 224.559C369.28 237.431 354.576 245.636 341.533 243.205C338.557 242.65 334.279 241.027 331.918 239.555C329.578 238.097 327.493 236.905 327.284 236.905C327.075 236.905 326.905 242.455 326.905 249.238C326.905 256.064 326.5 262.33 325.999 263.268C325.215 264.736 324.124 264.963 317.906 264.951C313.953 264.945 310.223 264.622 309.617 264.237H309.617ZM352.944 223.555C363.468 216.575 362.254 199.415 350.844 193.879C345.172 191.128 339.55 191.271 334.396 194.298C322.882 201.061 323.165 218.566 334.885 224.529C340.217 227.242 348.019 226.821 352.944 223.555ZM404.821 263.009C399.42 260.243 396.232 255.907 395.104 249.793C394.507 246.556 394.27 230.535 394.441 205.094L394.709 165.439L396.896 161.527C399.339 157.158 403.38 154.044 408.349 152.703C410.512 152.12 437.157 151.892 485.058 152.048L558.452 152.286L562.69 154.917C565.472 156.644 567.626 158.874 568.964 161.412L571 165.277V208.358C571 251.295 570.993 251.453 569.031 255.341C567.881 257.621 565.487 260.339 563.27 261.884L559.476 264.526L484.092 264.763L408.707 265L404.821 263.009ZM524.943 246.815C526.851 245.464 529.143 242.939 530.037 241.205C533.423 234.634 548.252 193.586 547.509 192.841C547.086 192.418 545.045 192.196 542.972 192.347L539.203 192.622L534.687 206.214C531.911 214.569 529.728 219.806 529.02 219.806C528.387 219.806 526.929 217.241 525.78 214.106C524.631 210.971 522.297 204.756 520.593 200.295L517.496 192.184H513.678C511.579 192.184 509.636 192.548 509.362 192.994C509.087 193.439 512.213 202.393 516.309 212.892C520.405 223.392 523.756 232.689 523.756 233.552C523.756 234.416 522.628 236.388 521.251 237.933C519.279 240.145 517.835 240.848 514.47 241.235C510.385 241.705 510.183 241.857 509.917 244.634C509.482 249.17 511.039 250.351 516.682 249.768C519.948 249.43 522.578 248.49 524.943 246.815V246.815ZM489.352 229.938C491.794 228.446 492.263 228.398 493.213 229.545C493.952 230.438 495.563 230.768 498.307 230.59L502.321 230.328L502.308 215.86C502.294 199.175 501.499 196.4 495.826 193.205C491.38 190.7 481.254 190.58 476.005 192.97C471.81 194.879 468.452 198.789 468.816 201.34C469.188 203.944 474.87 204.351 477.27 201.946C479.96 199.25 482.214 198.322 486.077 198.322C490.476 198.322 493.367 200.828 492.968 204.294C492.704 206.584 492.494 206.667 485.677 207.176C476.495 207.862 472.804 209.166 469.555 212.875C464.991 218.084 466.118 225.631 472.06 229.644C476.014 232.315 485.206 232.471 489.351 229.938L489.352 229.938ZM477.386 222.875C475.213 220.696 475.182 219.247 477.256 216.68C478.551 215.078 480.159 214.538 485.275 213.99C488.795 213.613 492.003 213.508 492.404 213.757C494.117 214.818 493.074 219.563 490.577 222.065C488.422 224.225 487.321 224.628 483.578 224.628C480.303 224.628 478.677 224.168 477.386 222.875V222.875ZM431.71 222.465C431.87 217.533 432.36 214.351 433.022 213.929C433.604 213.559 437.426 213.241 441.516 213.223C446.801 213.2 449.965 212.727 452.452 211.589C464.824 205.925 468.066 188.626 458.693 178.288C454.473 173.633 450.747 172.567 437.349 172.181C428.281 171.919 424.514 172.116 423.569 172.902C422.468 173.818 422.268 178.253 422.268 201.791C422.268 217.084 422.549 229.879 422.892 230.222C423.235 230.566 425.302 230.731 427.485 230.588L431.455 230.328L431.71 222.465ZM432.273 203.313C432.031 202.682 431.945 197.454 432.082 191.695L432.33 181.223L439.329 180.989C445.112 180.795 446.831 181.065 449.224 182.543C456.106 186.792 456.372 197.391 449.727 202.629C447.79 204.156 446.183 204.46 440.058 204.46C434.814 204.46 432.586 204.132 432.273 203.313L432.273 203.313ZM250.789 246.458C233.433 240.298 224.902 221.012 232.966 206.163C235.395 201.689 242.31 195.372 244.163 195.933C244.679 196.09 246.474 198.843 248.15 202.05L251.197 207.883L248.913 210.337C244.092 215.515 243.337 220.64 246.667 225.595C251.29 232.473 262.991 235.025 271.786 231.074C288.409 223.606 287.714 195.128 270.73 187.805C266.776 186.1 265.103 185.887 258.683 186.272C251.067 186.727 243.248 189.063 240.257 191.776C239.385 192.567 237.971 193.08 237.115 192.914C235.173 192.54 229.425 183.006 230.092 181.265C230.733 179.591 236.494 175.976 242.266 173.624C245.708 172.222 249.363 171.656 256.913 171.355C265.573 171.011 267.746 171.216 272.511 172.833C283.009 176.395 290.963 183.286 295.448 192.707C306.102 215.079 295.949 240.256 273.596 246.893C267.139 248.81 256.865 248.614 250.789 246.458ZM117.845 243.011C108.216 240.998 99.1422 233.846 96.9616 226.552C95.1679 220.551 95.1597 220.559 103.403 219.976C111.974 219.37 112.843 219.57 114.149 222.442C115.935 226.37 123.535 228.782 129.258 227.238C133.36 226.131 135.303 224.292 135.303 221.517C135.303 218.6 132.572 217.041 122.163 214.017C111.525 210.927 106.04 208.236 102.393 204.319C97.1296 198.666 96.3268 191.67 100.088 184.236C104.741 175.043 114.121 170.552 126.992 171.357C140.906 172.227 151.051 180.258 151.051 190.402V193.061H143.118C135.186 193.061 135.185 193.061 132.298 189.992C129.668 187.197 128.973 186.923 124.531 186.923C116.185 186.923 112.4 192.374 118.131 196.138C119.2 196.839 124.392 198.549 129.67 199.937C144.21 203.76 148.543 206.481 151.555 213.679C155 221.912 152.295 231.903 145.138 237.38C138.651 242.344 126.573 244.836 117.845 243.011V243.011ZM162.635 243.192C161.768 242.64 161.582 232.889 161.76 197.389L161.987 152.286H169.861H177.735L177.975 166.974C178.229 182.495 178.631 183.761 182.093 179.926C184.871 176.85 192.858 174.41 198.329 174.966C209.628 176.114 216.31 181.791 219.656 193.086C220.764 196.825 221.042 202.289 221.042 220.31C221.042 246.066 221.838 243.92 212.294 243.92C202.834 243.92 203.545 245.485 203.545 224.654C203.545 202.815 202.835 197.948 199.161 194.596C196.956 192.584 195.727 192.184 191.75 192.184C187.687 192.184 186.535 192.578 183.955 194.848C179.743 198.555 179.048 202.767 179.048 224.578C179.048 240.436 178.864 242.926 177.664 243.388C175.642 244.165 163.925 244.013 162.635 243.192H162.635Z" fill="white"/>
</g>
<defs>
<clipPath id="clip0">
<rect width="660" height="417" fill="white"/>
</clipPath>
</defs>
</svg>
