<?xml version="1.0" encoding="utf-8"?>
<!-- Generator: Adobe Illustrator 24.0.2, SVG Export Plug-In . SVG Version: 6.00 Build 0)  -->
<svg version="1.1" id="Layer_1" xmlns="http://www.w3.org/2000/svg" xmlns:xlink="http://www.w3.org/1999/xlink" x="0px" y="0px"
	 viewBox="0 0 200 200" style="enable-background:new 0 0 200 200;" xml:space="preserve">
<style type="text/css">
	.st0{fill:#022069;}
</style>
<g>
	<path class="st0" d="M99.3,0c12.7,0,25.4,0,38.1,0c2,0,2.7,0.6,2.8,2.6c0.4,12,0.8,24,1.3,36c0.3,6.3,0.7,12.5,1.1,18.8
		c0,0.3,0,0.5,0.1,0.8c0.1,0.5,0.1,1.2,0.8,1.2c0.7,0,0.6-0.8,0.6-1.3c0.1-1.1,0.5-1.9,1.8-1.9c1.3,0,2.6,0,2.8,1.8
		c0,0.4,0.3,0.8,0.5,1c1.5,1.4,1.6,3.1,0.9,4.8c-0.5,1.3-0.4,2.4,0.2,3.6c0.6,1.1,0.9,2.2,1.1,3.4c0.4,3.5-1.5,6.3-5.9,5.4
		c-4.1-0.8-8.2,0.4-12.2,1.2c-2,0.4-3.9,1.2-5.8,2.1c-3.7,1.8-7.6,2.8-11.7,3.2c-1.5,0.1-2.8,0.4-3.9,1.7c-0.8,0.9-2.1,1.1-3.2,0.9
		c-1.7-0.4-2.3,0.8-2.9,1.8c-0.7,1-0.1,1.8,0.4,2.9c1.7,3.8,4.8,5.8,8.5,7.1c1.2,0.4,2.1,1.3,2.2,2.6c0.2,1.3,1,1.8,2,2.2
		c14.9,6.3,25.2,17.1,30.7,32.2c4,11,3.4,22-1.1,32.8c-5.2,12.4-13.2,22.4-25.5,28.4c-10.6,5.1-21.7,5.8-33.1,3.3
		c-15.8-3.5-27.5-12.5-34.8-27c-9.8-19.8-5.9-43.4,9.6-58.1c5-4.7,10.7-8.4,17.1-11c1-0.4,1.7-0.7,1.3-2.1c-0.5-1.7,0.9-2.7,2.3-3.3
		c1-0.5,2.1-0.9,3.2-1.3c3.2-1.2,4.6-3.9,6.1-6.6c0.8-1.5-1.4-3.8-3.3-3.4C89.4,86,88,85.8,87,84c-0.6-1.1-2-1.1-3.1-1.1
		c-5.1,0.1-9.6-2-14.1-4.1c-4.4-2-9.1-2.5-13.8-3.2c-0.8-0.1-1.7,0.2-2.5,0.5c-3.7,0.9-5.1,0-5.6-3.8c-0.2-1.2,0.1-2.4,0.4-3.6
		c0.6-2.5,1-5,0.4-7.6c-0.5-2.2,1.4-3.6,2.2-5.4c0.6-1.3,2.8-0.8,3.7,0.7c0.5,0.8,0.9,1.5,2,1.2c1.2-0.3,0.9-1.3,0.9-2.2
		c0.3-11.7,0.5-23.4,1-35c0.2-5.9,0.2-11.8,0.2-17.6c0-2.9,0-2.9,2.8-2.9C74,0.1,86.7,0.1,99.3,0C99.3,0.1,99.3,0,99.3,0z
		 M55.7,64.1c-1.4,0-1.8,0.5-1.4,1.8c0.8,2.2,1.7,2.9,4,2.8c4.5-0.3,9-0.1,13.5,0.9c2.3,0.5,4.7,0.6,7.2,0.7
		c4.8,0.2,9.7-1.2,14.5,0.6c1.1,0.4,3-1.9,3-3.5c-0.1-1.8-1.5-0.9-2.3-0.9c-8.8-0.1-17.6-0.3-26.4-0.3c-3.8,0-8,0.8-11.4-2
		C56.1,64,55.8,64.1,55.7,64.1z M106.9,66.4c-0.8,0-2,0-3.1,0c-0.4,0-1-0.2-1,0.6c-0.1,2.2,2.9,4.5,5,3.7c2.1-0.8,4.2-0.9,6.5-0.7
		c3.4,0.3,6.8,0.8,10.4,0.2c5.5-0.9,11-2.1,16.7-1.4c1.5,0.2,2.8-0.5,2.9-2.3c0-0.4,0.1-0.8-0.4-1c-0.4-0.2-0.9-0.1-1.1,0.2
		c-1.2,1.8-3,1.5-4.7,1.4C127.7,67.2,117.5,66.8,106.9,66.4z"/>
</g>
</svg>
